PathFileType	4	(X/Y/Z)	Apose_0-124.trc
DataRate	CameraRate	NumFrames	NumMarkers	Units	OrigDataRate	OrigDataStartFrame	OrigNumFrames
30	30	5	22	m	30	31	124
Frame#	Time	Hip			RHip			RKnee			RAnkle			RBigToe			RSmallToe			RHeel			LHip			LKnee			LAnkle			LBigToe			LSmallToe			LHeel			Neck			Head			Nose			RShoulder			RElbow			RWrist			LShoulder			LElbow			LWrist		
		X1	Y1	Z1	X2	Y2	Z2	X3	Y3	Z3	X4	Y4	Z4	X5	Y5	Z5	X6	Y6	Z6	X7	Y7	Z7	X8	Y8	Z8	X9	Y9	Z9	X10	Y10	Z10	X11	Y11	Z11	X12	Y12	Z12	X13	Y13	Z13	X14	Y14	Z14	X15	Y15	Z15	X16	Y16	Z16	X17	Y17	Z17	X18	Y18	Z18	X19	Y19	Z19	X20	Y20	Z20	X21	Y21	Z21	X22	Y22	Z22
32	1.0666666666666669	0.8206669333647076	0.8537494594046722	0.3413222978581798	0.8318802700470105	0.8137753864622336	0.25940745313845526	0.8393017244291756	0.4893665360053467	0.26833510231052116	0.8395098797436351	0.10768762225241557	0.28445742905960525	0.6782398497485319	0.03117669035357423	0.22035358192967056	0.7315834236618854	0.030812994206945634	0.16970373647179623	0.8674386776356994	0.037369395749503195	0.2989411437150942	0.815940075717977	0.8137087487878008	0.4309220558164209	0.830097657033183	0.4881894562358953	0.42314748769791255	0.8488038458919793	0.10931459267086718	0.4255262918403177	0.6593859601701091	0.032499650123930364	0.4561009204826729	0.7253960221564265	0.030555395113376866	0.516744571261244	0.8864945866869687	0.048217735848736364	0.4271383054320007	0.8265874717079394	1.4633539499399395	0.34685674218279305	0.8150090152001654	1.6849455288398953	0.36463404155605433	0.7667028369523937	1.5725925947247397	0.255863049751064	0.8690990965834738	1.379608797239863	0.17125160136602235	0.8920373134588295	1.186440094459821	-0.02603626814370197	0.8699767816059344	1.0960018088109615	-0.20402333834779307	0.828552592646694	1.3719057921016973	0.5268358852365098	0.8136298512069292	1.1685234425980389	0.7223772743059068	0.7614701420978108	1.0737313927077006	0.8751592496550724
33	1.1	0.8203656515269181	0.8536539745575447	0.3412482552370976	0.8317050262265695	0.8139547402000532	0.2596275454705442	0.8387105623683186	0.4891554264531076	0.268186202570114	0.8391880886829319	0.10787762086332689	0.28440198527192584	0.6783500833645534	0.03117299706341104	0.22060606137806535	0.731481786094316	0.030852970945337226	0.16956252606292244	0.8676924941049613	0.03754059623275631	0.29898071499918494	0.8156097399064955	0.8137286842246292	0.43077957210571277	0.8295529449930833	0.4883641277519448	0.4235746845756835	0.8490966874078092	0.11012441794347211	0.4255238375367677	0.6585644712486103	0.03159285422577805	0.4555492550374911	0.725257030349005	0.03046340420703999	0.5166876257631486	0.8863127768196086	0.04834979158939059	0.42716964563133825	0.8265836053468106	1.4634415573635169	0.3476778664704117	0.8150335137004697	1.6847271091247518	0.3657447067482603	0.7643968021180052	1.573232286612443	0.25912618208831556	0.869349499884549	1.38009673530735	0.17258880089893675	0.8914368623554783	1.1867059531057633	-0.02534320698435309	0.8696193560975629	1.0961934383162437	-0.20367298959086394	0.8284493701078954	1.3715004083026243	0.5274697126079841	0.8136229298714437	1.1682333080361618	0.7221895518916487	0.7620112308797667	1.073293480452145	0.8753335870244469
34	1.1333333333333333	0.8200660741513335	0.8536257600748905	0.3412181253231724	0.8316216796001321	0.8141879183349097	0.2597283541638858	0.8380424208655151	0.48878787754767034	0.268072071295672	0.8388548020398511	0.10834938847510044	0.2843193196471984	0.6787849189117988	0.031153232771239752	0.22118884316874401	0.7313657832228138	0.030983810665284932	0.16949916462278694	0.8679125063484886	0.03782474028402034	0.2990246645523307	0.81525960541399	0.8137451653736186	0.4306048428747394	0.8291392694991829	0.4885268769437652	0.42386582191477484	0.849373747656438	0.11071739593276929	0.4256000908046096	0.6570428965306411	0.030213144694394574	0.4543669106567405	0.725238868885178	0.03046990995742567	0.516663133162371	0.8863947563046752	0.04839944825820979	0.42714142825880197	0.8265030697328576	1.463642355717845	0.3487048667835563	0.8151015157538077	1.6846143696656113	0.36670699460367817	0.760092891800983	1.5741273514275909	0.2643857034310143	0.8691132613085657	1.380497648936373	0.17368399322614012	0.8906942314047778	1.186962136410265	-0.024654306115382177	0.8690137425744805	1.096418516568442	-0.20342977929545866	0.8282923359631498	1.3711381067455921	0.5282603544760197	0.813648684499023	1.1679818418171422	0.722343758935852	0.7629264193998917	1.072843576275846	0.8756884678994198
35	1.1666666666666667	0.8197612412151872	0.8536831364279946	0.34130738803825056	0.8315776620582854	0.8144874990247737	0.2596527766014315	0.8374235788664617	0.4880117314711228	0.26806657187940913	0.8385916426686318	0.10896072260731564	0.284276395514113	0.6789597396507546	0.03151539577445212	0.22162108477391546	0.7312075656739412	0.031166216954918592	0.16950588247355167	0.8680061874209263	0.038137590119763545	0.2991003709704485	0.8148690046622143	0.8137839552803632	0.43046182784026943	0.8288311902019536	0.48875244200804974	0.4240489388670523	0.8494911389003366	0.11088854827028831	0.42592904555574124	0.6555297556357087	0.028852233096969094	0.4532251617084372	0.7253499268631485	0.030511453345428246	0.5166280370617572	0.8867420810603023	0.04832860894053389	0.42707231247011307	0.8263000240787065	1.4637508456267592	0.3498077849855055	0.8152549381364793	1.6847322251958117	0.3676511233337264	0.7544804773939165	1.5751251238173745	0.27113473793991794	0.8685367629081059	1.3808900819541416	0.174619766176941	0.8899603555283792	1.187181876129905	-0.02410075970287266	0.868329104186253	1.0966393545808224	-0.2032243307533853	0.8281111933654124	1.370835802357012	0.5292437392482285	0.8138047151904224	1.1677480472444388	0.7230435577046557	0.7643098493708771	1.0723860405979462	0.8762197971551015
36	1.2	0.8194700299032718	0.8538164893083345	0.34149598936193104	0.8315192518606281	0.8148898600761719	0.259352498112046	0.8369649032855465	0.4865054533734307	0.2681163411343206	0.8384230488313951	0.10958425163607714	0.2843532699501925	0.6784304872348688	0.03245868960197558	0.22145267054582018	0.7310095884748316	0.03136236266946815	0.16952208843379937	0.8679230760509242	0.03836512377951455	0.2992229671362904	0.8144302906365289	0.8139037497984721	0.4303654177489734	0.8285952537884095	0.4891070958331783	0.42414664000267527	0.8493973633880727	0.1105535742493102	0.4265797078594925	0.6543306842318675	0.027693781026622743	0.4524426528568246	0.7255179341606991	0.03054743936453592	0.5165015987905104	0.8872294421772422	0.04804163988898626	0.4269773407642888	0.8260087872849261	1.463835853252471	0.3508533306519086	0.8155113924599561	1.6851716616496555	0.3685927812805041	0.7484837239590417	1.5761118714339897	0.2785275635017795	0.8678152097000302	1.3813083358348333	0.1754910355187365	0.8893996100462205	1.1873443340439953	-0.023798124603792697	0.8676987921493957	1.0969054227005186	-0.20302798041411338	0.8279493129220625	1.3705922355224687	0.5304102549875179	0.8141387461450933	1.167531659295047	0.7243364934089853	0.766176561191243	1.0719250774774636	0.8769599977477064
